%TF.GenerationSoftware,KiCad,Pcbnew,9.0.7*%
%TF.CreationDate,2026-02-26T00:41:08-05:00*%
%TF.ProjectId,schematic,73636865-6d61-4746-9963-2e6b69636164,rev?*%
%TF.SameCoordinates,Original*%
%TF.FileFunction,Legend,Top*%
%TF.FilePolarity,Positive*%
%FSLAX46Y46*%
G04 Gerber Fmt 4.6, Leading zero omitted, Abs format (unit mm)*
G04 Created by KiCad (PCBNEW 9.0.7) date 2026-02-26 00:41:08*
%MOMM*%
%LPD*%
G01*
G04 APERTURE LIST*
%ADD10C,0.100000*%
%ADD11C,0.150000*%
%ADD12C,0.120000*%
%ADD13C,0.127000*%
%ADD14C,0.300000*%
G04 APERTURE END LIST*
D10*
X112732455Y-95324800D02*
X112637217Y-95372419D01*
X112637217Y-95372419D02*
X112446741Y-95372419D01*
X112446741Y-95372419D02*
X112351503Y-95324800D01*
X112351503Y-95324800D02*
X112303884Y-95277180D01*
X112303884Y-95277180D02*
X112256265Y-95181942D01*
X112256265Y-95181942D02*
X112256265Y-94896228D01*
X112256265Y-94896228D02*
X112303884Y-94800990D01*
X112303884Y-94800990D02*
X112351503Y-94753371D01*
X112351503Y-94753371D02*
X112446741Y-94705752D01*
X112446741Y-94705752D02*
X112637217Y-94705752D01*
X112637217Y-94705752D02*
X112732455Y-94753371D01*
X113303884Y-95372419D02*
X113208646Y-95324800D01*
X113208646Y-95324800D02*
X113161027Y-95277180D01*
X113161027Y-95277180D02*
X113113408Y-95181942D01*
X113113408Y-95181942D02*
X113113408Y-94896228D01*
X113113408Y-94896228D02*
X113161027Y-94800990D01*
X113161027Y-94800990D02*
X113208646Y-94753371D01*
X113208646Y-94753371D02*
X113303884Y-94705752D01*
X113303884Y-94705752D02*
X113446741Y-94705752D01*
X113446741Y-94705752D02*
X113541979Y-94753371D01*
X113541979Y-94753371D02*
X113589598Y-94800990D01*
X113589598Y-94800990D02*
X113637217Y-94896228D01*
X113637217Y-94896228D02*
X113637217Y-95181942D01*
X113637217Y-95181942D02*
X113589598Y-95277180D01*
X113589598Y-95277180D02*
X113541979Y-95324800D01*
X113541979Y-95324800D02*
X113446741Y-95372419D01*
X113446741Y-95372419D02*
X113303884Y-95372419D01*
X114065789Y-94705752D02*
X114065789Y-95372419D01*
X114065789Y-94800990D02*
X114113408Y-94753371D01*
X114113408Y-94753371D02*
X114208646Y-94705752D01*
X114208646Y-94705752D02*
X114351503Y-94705752D01*
X114351503Y-94705752D02*
X114446741Y-94753371D01*
X114446741Y-94753371D02*
X114494360Y-94848609D01*
X114494360Y-94848609D02*
X114494360Y-95372419D01*
X114827694Y-94705752D02*
X115208646Y-94705752D01*
X114970551Y-94372419D02*
X114970551Y-95229561D01*
X114970551Y-95229561D02*
X115018170Y-95324800D01*
X115018170Y-95324800D02*
X115113408Y-95372419D01*
X115113408Y-95372419D02*
X115208646Y-95372419D01*
X115541980Y-95372419D02*
X115541980Y-94705752D01*
X115541980Y-94896228D02*
X115589599Y-94800990D01*
X115589599Y-94800990D02*
X115637218Y-94753371D01*
X115637218Y-94753371D02*
X115732456Y-94705752D01*
X115732456Y-94705752D02*
X115827694Y-94705752D01*
X116303885Y-95372419D02*
X116208647Y-95324800D01*
X116208647Y-95324800D02*
X116161028Y-95277180D01*
X116161028Y-95277180D02*
X116113409Y-95181942D01*
X116113409Y-95181942D02*
X116113409Y-94896228D01*
X116113409Y-94896228D02*
X116161028Y-94800990D01*
X116161028Y-94800990D02*
X116208647Y-94753371D01*
X116208647Y-94753371D02*
X116303885Y-94705752D01*
X116303885Y-94705752D02*
X116446742Y-94705752D01*
X116446742Y-94705752D02*
X116541980Y-94753371D01*
X116541980Y-94753371D02*
X116589599Y-94800990D01*
X116589599Y-94800990D02*
X116637218Y-94896228D01*
X116637218Y-94896228D02*
X116637218Y-95181942D01*
X116637218Y-95181942D02*
X116589599Y-95277180D01*
X116589599Y-95277180D02*
X116541980Y-95324800D01*
X116541980Y-95324800D02*
X116446742Y-95372419D01*
X116446742Y-95372419D02*
X116303885Y-95372419D01*
X117208647Y-95372419D02*
X117113409Y-95324800D01*
X117113409Y-95324800D02*
X117065790Y-95229561D01*
X117065790Y-95229561D02*
X117065790Y-94372419D01*
X102732455Y-95324800D02*
X102637217Y-95372419D01*
X102637217Y-95372419D02*
X102446741Y-95372419D01*
X102446741Y-95372419D02*
X102351503Y-95324800D01*
X102351503Y-95324800D02*
X102303884Y-95277180D01*
X102303884Y-95277180D02*
X102256265Y-95181942D01*
X102256265Y-95181942D02*
X102256265Y-94896228D01*
X102256265Y-94896228D02*
X102303884Y-94800990D01*
X102303884Y-94800990D02*
X102351503Y-94753371D01*
X102351503Y-94753371D02*
X102446741Y-94705752D01*
X102446741Y-94705752D02*
X102637217Y-94705752D01*
X102637217Y-94705752D02*
X102732455Y-94753371D01*
X103303884Y-95372419D02*
X103208646Y-95324800D01*
X103208646Y-95324800D02*
X103161027Y-95229561D01*
X103161027Y-95229561D02*
X103161027Y-94372419D01*
X103827694Y-95372419D02*
X103732456Y-95324800D01*
X103732456Y-95324800D02*
X103684837Y-95277180D01*
X103684837Y-95277180D02*
X103637218Y-95181942D01*
X103637218Y-95181942D02*
X103637218Y-94896228D01*
X103637218Y-94896228D02*
X103684837Y-94800990D01*
X103684837Y-94800990D02*
X103732456Y-94753371D01*
X103732456Y-94753371D02*
X103827694Y-94705752D01*
X103827694Y-94705752D02*
X103970551Y-94705752D01*
X103970551Y-94705752D02*
X104065789Y-94753371D01*
X104065789Y-94753371D02*
X104113408Y-94800990D01*
X104113408Y-94800990D02*
X104161027Y-94896228D01*
X104161027Y-94896228D02*
X104161027Y-95181942D01*
X104161027Y-95181942D02*
X104113408Y-95277180D01*
X104113408Y-95277180D02*
X104065789Y-95324800D01*
X104065789Y-95324800D02*
X103970551Y-95372419D01*
X103970551Y-95372419D02*
X103827694Y-95372419D01*
X104541980Y-95324800D02*
X104637218Y-95372419D01*
X104637218Y-95372419D02*
X104827694Y-95372419D01*
X104827694Y-95372419D02*
X104922932Y-95324800D01*
X104922932Y-95324800D02*
X104970551Y-95229561D01*
X104970551Y-95229561D02*
X104970551Y-95181942D01*
X104970551Y-95181942D02*
X104922932Y-95086704D01*
X104922932Y-95086704D02*
X104827694Y-95039085D01*
X104827694Y-95039085D02*
X104684837Y-95039085D01*
X104684837Y-95039085D02*
X104589599Y-94991466D01*
X104589599Y-94991466D02*
X104541980Y-94896228D01*
X104541980Y-94896228D02*
X104541980Y-94848609D01*
X104541980Y-94848609D02*
X104589599Y-94753371D01*
X104589599Y-94753371D02*
X104684837Y-94705752D01*
X104684837Y-94705752D02*
X104827694Y-94705752D01*
X104827694Y-94705752D02*
X104922932Y-94753371D01*
X105780075Y-95324800D02*
X105684837Y-95372419D01*
X105684837Y-95372419D02*
X105494361Y-95372419D01*
X105494361Y-95372419D02*
X105399123Y-95324800D01*
X105399123Y-95324800D02*
X105351504Y-95229561D01*
X105351504Y-95229561D02*
X105351504Y-94848609D01*
X105351504Y-94848609D02*
X105399123Y-94753371D01*
X105399123Y-94753371D02*
X105494361Y-94705752D01*
X105494361Y-94705752D02*
X105684837Y-94705752D01*
X105684837Y-94705752D02*
X105780075Y-94753371D01*
X105780075Y-94753371D02*
X105827694Y-94848609D01*
X105827694Y-94848609D02*
X105827694Y-94943847D01*
X105827694Y-94943847D02*
X105351504Y-95039085D01*
X106684837Y-95372419D02*
X106684837Y-94372419D01*
X106684837Y-95324800D02*
X106589599Y-95372419D01*
X106589599Y-95372419D02*
X106399123Y-95372419D01*
X106399123Y-95372419D02*
X106303885Y-95324800D01*
X106303885Y-95324800D02*
X106256266Y-95277180D01*
X106256266Y-95277180D02*
X106208647Y-95181942D01*
X106208647Y-95181942D02*
X106208647Y-94896228D01*
X106208647Y-94896228D02*
X106256266Y-94800990D01*
X106256266Y-94800990D02*
X106303885Y-94753371D01*
X106303885Y-94753371D02*
X106399123Y-94705752D01*
X106399123Y-94705752D02*
X106589599Y-94705752D01*
X106589599Y-94705752D02*
X106684837Y-94753371D01*
X92946741Y-95372419D02*
X92851503Y-95324800D01*
X92851503Y-95324800D02*
X92803884Y-95277180D01*
X92803884Y-95277180D02*
X92756265Y-95181942D01*
X92756265Y-95181942D02*
X92756265Y-94896228D01*
X92756265Y-94896228D02*
X92803884Y-94800990D01*
X92803884Y-94800990D02*
X92851503Y-94753371D01*
X92851503Y-94753371D02*
X92946741Y-94705752D01*
X92946741Y-94705752D02*
X93089598Y-94705752D01*
X93089598Y-94705752D02*
X93184836Y-94753371D01*
X93184836Y-94753371D02*
X93232455Y-94800990D01*
X93232455Y-94800990D02*
X93280074Y-94896228D01*
X93280074Y-94896228D02*
X93280074Y-95181942D01*
X93280074Y-95181942D02*
X93232455Y-95277180D01*
X93232455Y-95277180D02*
X93184836Y-95324800D01*
X93184836Y-95324800D02*
X93089598Y-95372419D01*
X93089598Y-95372419D02*
X92946741Y-95372419D01*
X93708646Y-94705752D02*
X93708646Y-95705752D01*
X93708646Y-94753371D02*
X93803884Y-94705752D01*
X93803884Y-94705752D02*
X93994360Y-94705752D01*
X93994360Y-94705752D02*
X94089598Y-94753371D01*
X94089598Y-94753371D02*
X94137217Y-94800990D01*
X94137217Y-94800990D02*
X94184836Y-94896228D01*
X94184836Y-94896228D02*
X94184836Y-95181942D01*
X94184836Y-95181942D02*
X94137217Y-95277180D01*
X94137217Y-95277180D02*
X94089598Y-95324800D01*
X94089598Y-95324800D02*
X93994360Y-95372419D01*
X93994360Y-95372419D02*
X93803884Y-95372419D01*
X93803884Y-95372419D02*
X93708646Y-95324800D01*
X94994360Y-95324800D02*
X94899122Y-95372419D01*
X94899122Y-95372419D02*
X94708646Y-95372419D01*
X94708646Y-95372419D02*
X94613408Y-95324800D01*
X94613408Y-95324800D02*
X94565789Y-95229561D01*
X94565789Y-95229561D02*
X94565789Y-94848609D01*
X94565789Y-94848609D02*
X94613408Y-94753371D01*
X94613408Y-94753371D02*
X94708646Y-94705752D01*
X94708646Y-94705752D02*
X94899122Y-94705752D01*
X94899122Y-94705752D02*
X94994360Y-94753371D01*
X94994360Y-94753371D02*
X95041979Y-94848609D01*
X95041979Y-94848609D02*
X95041979Y-94943847D01*
X95041979Y-94943847D02*
X94565789Y-95039085D01*
X95470551Y-94705752D02*
X95470551Y-95372419D01*
X95470551Y-94800990D02*
X95518170Y-94753371D01*
X95518170Y-94753371D02*
X95613408Y-94705752D01*
X95613408Y-94705752D02*
X95756265Y-94705752D01*
X95756265Y-94705752D02*
X95851503Y-94753371D01*
X95851503Y-94753371D02*
X95899122Y-94848609D01*
X95899122Y-94848609D02*
X95899122Y-95372419D01*
X85803884Y-94491466D02*
X86565789Y-94491466D01*
X80303884Y-94491466D02*
X81065789Y-94491466D01*
X80684836Y-94872419D02*
X80684836Y-94110514D01*
X82280074Y-94372419D02*
X81803884Y-94372419D01*
X81803884Y-94372419D02*
X81756265Y-94848609D01*
X81756265Y-94848609D02*
X81803884Y-94800990D01*
X81803884Y-94800990D02*
X81899122Y-94753371D01*
X81899122Y-94753371D02*
X82137217Y-94753371D01*
X82137217Y-94753371D02*
X82232455Y-94800990D01*
X82232455Y-94800990D02*
X82280074Y-94848609D01*
X82280074Y-94848609D02*
X82327693Y-94943847D01*
X82327693Y-94943847D02*
X82327693Y-95181942D01*
X82327693Y-95181942D02*
X82280074Y-95277180D01*
X82280074Y-95277180D02*
X82232455Y-95324800D01*
X82232455Y-95324800D02*
X82137217Y-95372419D01*
X82137217Y-95372419D02*
X81899122Y-95372419D01*
X81899122Y-95372419D02*
X81803884Y-95324800D01*
X81803884Y-95324800D02*
X81756265Y-95277180D01*
X82661027Y-94705752D02*
X82899122Y-95372419D01*
X82899122Y-95372419D02*
X83137217Y-94705752D01*
X84280075Y-95372419D02*
X84280075Y-94705752D01*
X84280075Y-94372419D02*
X84232456Y-94420038D01*
X84232456Y-94420038D02*
X84280075Y-94467657D01*
X84280075Y-94467657D02*
X84327694Y-94420038D01*
X84327694Y-94420038D02*
X84280075Y-94372419D01*
X84280075Y-94372419D02*
X84280075Y-94467657D01*
X84756265Y-94705752D02*
X84756265Y-95372419D01*
X84756265Y-94800990D02*
X84803884Y-94753371D01*
X84803884Y-94753371D02*
X84899122Y-94705752D01*
X84899122Y-94705752D02*
X85041979Y-94705752D01*
X85041979Y-94705752D02*
X85137217Y-94753371D01*
X85137217Y-94753371D02*
X85184836Y-94848609D01*
X85184836Y-94848609D02*
X85184836Y-95372419D01*
D11*
X120324819Y-77571904D02*
X121134342Y-77571904D01*
X121134342Y-77571904D02*
X121229580Y-77524285D01*
X121229580Y-77524285D02*
X121277200Y-77476666D01*
X121277200Y-77476666D02*
X121324819Y-77381428D01*
X121324819Y-77381428D02*
X121324819Y-77190952D01*
X121324819Y-77190952D02*
X121277200Y-77095714D01*
X121277200Y-77095714D02*
X121229580Y-77048095D01*
X121229580Y-77048095D02*
X121134342Y-77000476D01*
X121134342Y-77000476D02*
X120324819Y-77000476D01*
X120324819Y-76619523D02*
X120324819Y-76000476D01*
X120324819Y-76000476D02*
X120705771Y-76333809D01*
X120705771Y-76333809D02*
X120705771Y-76190952D01*
X120705771Y-76190952D02*
X120753390Y-76095714D01*
X120753390Y-76095714D02*
X120801009Y-76048095D01*
X120801009Y-76048095D02*
X120896247Y-76000476D01*
X120896247Y-76000476D02*
X121134342Y-76000476D01*
X121134342Y-76000476D02*
X121229580Y-76048095D01*
X121229580Y-76048095D02*
X121277200Y-76095714D01*
X121277200Y-76095714D02*
X121324819Y-76190952D01*
X121324819Y-76190952D02*
X121324819Y-76476666D01*
X121324819Y-76476666D02*
X121277200Y-76571904D01*
X121277200Y-76571904D02*
X121229580Y-76619523D01*
X92624819Y-70676666D02*
X92148628Y-71009999D01*
X92624819Y-71248094D02*
X91624819Y-71248094D01*
X91624819Y-71248094D02*
X91624819Y-70867142D01*
X91624819Y-70867142D02*
X91672438Y-70771904D01*
X91672438Y-70771904D02*
X91720057Y-70724285D01*
X91720057Y-70724285D02*
X91815295Y-70676666D01*
X91815295Y-70676666D02*
X91958152Y-70676666D01*
X91958152Y-70676666D02*
X92053390Y-70724285D01*
X92053390Y-70724285D02*
X92101009Y-70771904D01*
X92101009Y-70771904D02*
X92148628Y-70867142D01*
X92148628Y-70867142D02*
X92148628Y-71248094D01*
X91720057Y-70295713D02*
X91672438Y-70248094D01*
X91672438Y-70248094D02*
X91624819Y-70152856D01*
X91624819Y-70152856D02*
X91624819Y-69914761D01*
X91624819Y-69914761D02*
X91672438Y-69819523D01*
X91672438Y-69819523D02*
X91720057Y-69771904D01*
X91720057Y-69771904D02*
X91815295Y-69724285D01*
X91815295Y-69724285D02*
X91910533Y-69724285D01*
X91910533Y-69724285D02*
X92053390Y-69771904D01*
X92053390Y-69771904D02*
X92624819Y-70343332D01*
X92624819Y-70343332D02*
X92624819Y-69724285D01*
X84088095Y-70954819D02*
X84088095Y-71764342D01*
X84088095Y-71764342D02*
X84135714Y-71859580D01*
X84135714Y-71859580D02*
X84183333Y-71907200D01*
X84183333Y-71907200D02*
X84278571Y-71954819D01*
X84278571Y-71954819D02*
X84469047Y-71954819D01*
X84469047Y-71954819D02*
X84564285Y-71907200D01*
X84564285Y-71907200D02*
X84611904Y-71859580D01*
X84611904Y-71859580D02*
X84659523Y-71764342D01*
X84659523Y-71764342D02*
X84659523Y-70954819D01*
X85088095Y-71050057D02*
X85135714Y-71002438D01*
X85135714Y-71002438D02*
X85230952Y-70954819D01*
X85230952Y-70954819D02*
X85469047Y-70954819D01*
X85469047Y-70954819D02*
X85564285Y-71002438D01*
X85564285Y-71002438D02*
X85611904Y-71050057D01*
X85611904Y-71050057D02*
X85659523Y-71145295D01*
X85659523Y-71145295D02*
X85659523Y-71240533D01*
X85659523Y-71240533D02*
X85611904Y-71383390D01*
X85611904Y-71383390D02*
X85040476Y-71954819D01*
X85040476Y-71954819D02*
X85659523Y-71954819D01*
X117863333Y-70284819D02*
X117530000Y-69808628D01*
X117291905Y-70284819D02*
X117291905Y-69284819D01*
X117291905Y-69284819D02*
X117672857Y-69284819D01*
X117672857Y-69284819D02*
X117768095Y-69332438D01*
X117768095Y-69332438D02*
X117815714Y-69380057D01*
X117815714Y-69380057D02*
X117863333Y-69475295D01*
X117863333Y-69475295D02*
X117863333Y-69618152D01*
X117863333Y-69618152D02*
X117815714Y-69713390D01*
X117815714Y-69713390D02*
X117768095Y-69761009D01*
X117768095Y-69761009D02*
X117672857Y-69808628D01*
X117672857Y-69808628D02*
X117291905Y-69808628D01*
X118815714Y-70284819D02*
X118244286Y-70284819D01*
X118530000Y-70284819D02*
X118530000Y-69284819D01*
X118530000Y-69284819D02*
X118434762Y-69427676D01*
X118434762Y-69427676D02*
X118339524Y-69522914D01*
X118339524Y-69522914D02*
X118244286Y-69570533D01*
X113590621Y-83310883D02*
X113590621Y-84026293D01*
X113590621Y-84026293D02*
X113542927Y-84169375D01*
X113542927Y-84169375D02*
X113447539Y-84264764D01*
X113447539Y-84264764D02*
X113304457Y-84312458D01*
X113304457Y-84312458D02*
X113209069Y-84312458D01*
X113972174Y-83310883D02*
X114592196Y-83310883D01*
X114592196Y-83310883D02*
X114258338Y-83692435D01*
X114258338Y-83692435D02*
X114401420Y-83692435D01*
X114401420Y-83692435D02*
X114496808Y-83740129D01*
X114496808Y-83740129D02*
X114544502Y-83787823D01*
X114544502Y-83787823D02*
X114592196Y-83883211D01*
X114592196Y-83883211D02*
X114592196Y-84121681D01*
X114592196Y-84121681D02*
X114544502Y-84217069D01*
X114544502Y-84217069D02*
X114496808Y-84264764D01*
X114496808Y-84264764D02*
X114401420Y-84312458D01*
X114401420Y-84312458D02*
X114115256Y-84312458D01*
X114115256Y-84312458D02*
X114019868Y-84264764D01*
X114019868Y-84264764D02*
X113972174Y-84217069D01*
X103590621Y-83310883D02*
X103590621Y-84026293D01*
X103590621Y-84026293D02*
X103542927Y-84169375D01*
X103542927Y-84169375D02*
X103447539Y-84264764D01*
X103447539Y-84264764D02*
X103304457Y-84312458D01*
X103304457Y-84312458D02*
X103209069Y-84312458D01*
X104019868Y-83406271D02*
X104067562Y-83358577D01*
X104067562Y-83358577D02*
X104162950Y-83310883D01*
X104162950Y-83310883D02*
X104401420Y-83310883D01*
X104401420Y-83310883D02*
X104496808Y-83358577D01*
X104496808Y-83358577D02*
X104544502Y-83406271D01*
X104544502Y-83406271D02*
X104592196Y-83501659D01*
X104592196Y-83501659D02*
X104592196Y-83597047D01*
X104592196Y-83597047D02*
X104544502Y-83740129D01*
X104544502Y-83740129D02*
X103972174Y-84312458D01*
X103972174Y-84312458D02*
X104592196Y-84312458D01*
X93590621Y-83310883D02*
X93590621Y-84026293D01*
X93590621Y-84026293D02*
X93542927Y-84169375D01*
X93542927Y-84169375D02*
X93447539Y-84264764D01*
X93447539Y-84264764D02*
X93304457Y-84312458D01*
X93304457Y-84312458D02*
X93209069Y-84312458D01*
X94592196Y-84312458D02*
X94019868Y-84312458D01*
X94306032Y-84312458D02*
X94306032Y-83310883D01*
X94306032Y-83310883D02*
X94210644Y-83453965D01*
X94210644Y-83453965D02*
X94115256Y-83549353D01*
X94115256Y-83549353D02*
X94019868Y-83597047D01*
X82590621Y-83310883D02*
X82590621Y-84026293D01*
X82590621Y-84026293D02*
X82542927Y-84169375D01*
X82542927Y-84169375D02*
X82447539Y-84264764D01*
X82447539Y-84264764D02*
X82304457Y-84312458D01*
X82304457Y-84312458D02*
X82209069Y-84312458D01*
X83496808Y-83644741D02*
X83496808Y-84312458D01*
X83258338Y-83263189D02*
X83019868Y-83978599D01*
X83019868Y-83978599D02*
X83639890Y-83978599D01*
D12*
%TO.C,C1*%
X81872164Y-80640000D02*
X82087836Y-80640000D01*
X81872164Y-81360000D02*
X82087836Y-81360000D01*
%TO.C,U3*%
X119870000Y-77810000D02*
G75*
G02*
X119870000Y-75810000I0J1000000D01*
G01*
X114670000Y-79460000D02*
X119870000Y-79460000D01*
X119870000Y-79460000D02*
X119870000Y-77810000D01*
X119870000Y-75810000D02*
X119870000Y-74160000D01*
X114670000Y-74160000D02*
X114670000Y-79460000D01*
X119870000Y-74160000D02*
X114670000Y-74160000D01*
%TO.C,R2*%
X90620000Y-70356359D02*
X90620000Y-70663641D01*
X91380000Y-70356359D02*
X91380000Y-70663641D01*
%TO.C,U2*%
X83000000Y-72590000D02*
X86760000Y-72590000D01*
X83000000Y-79410000D02*
X86760000Y-79410000D01*
X86760000Y-72590000D02*
X86760000Y-73850000D01*
X86760000Y-79410000D02*
X86760000Y-78150000D01*
X81720000Y-72690000D02*
X81480000Y-72360000D01*
X81960000Y-72360000D01*
X81720000Y-72690000D01*
G36*
X81720000Y-72690000D02*
G01*
X81480000Y-72360000D01*
X81960000Y-72360000D01*
X81720000Y-72690000D01*
G37*
%TO.C,R1*%
X117876359Y-70620000D02*
X118183641Y-70620000D01*
X117876359Y-71380000D02*
X118183641Y-71380000D01*
D13*
%TO.C,J3*%
X110750000Y-84900000D02*
X118250000Y-84900000D01*
X118250000Y-84900000D02*
X118250000Y-93100000D01*
X118250000Y-93100000D02*
X110750000Y-93100000D01*
X110750000Y-93100000D02*
X110750000Y-84900000D01*
D14*
X110300000Y-89000000D02*
G75*
G02*
X110000000Y-89000000I-150000J0D01*
G01*
X110000000Y-89000000D02*
G75*
G02*
X110300000Y-89000000I150000J0D01*
G01*
D13*
%TO.C,J2*%
X100750000Y-84900000D02*
X108250000Y-84900000D01*
X108250000Y-84900000D02*
X108250000Y-93100000D01*
X108250000Y-93100000D02*
X100750000Y-93100000D01*
X100750000Y-93100000D02*
X100750000Y-84900000D01*
D14*
X100300000Y-89000000D02*
G75*
G02*
X100000000Y-89000000I-150000J0D01*
G01*
X100000000Y-89000000D02*
G75*
G02*
X100300000Y-89000000I150000J0D01*
G01*
D13*
%TO.C,J1*%
X90750000Y-84900000D02*
X98250000Y-84900000D01*
X98250000Y-84900000D02*
X98250000Y-93100000D01*
X98250000Y-93100000D02*
X90750000Y-93100000D01*
X90750000Y-93100000D02*
X90750000Y-84900000D01*
D14*
X90300000Y-89000000D02*
G75*
G02*
X90000000Y-89000000I-150000J0D01*
G01*
X90000000Y-89000000D02*
G75*
G02*
X90300000Y-89000000I150000J0D01*
G01*
D12*
%TO.C,D1*%
X91910000Y-76763748D02*
X91910000Y-78186252D01*
X90090000Y-76763748D02*
X90090000Y-78186252D01*
D13*
%TO.C,J4*%
X79750000Y-84900000D02*
X87250000Y-84900000D01*
X87250000Y-84900000D02*
X87250000Y-93100000D01*
X87250000Y-93100000D02*
X79750000Y-93100000D01*
X79750000Y-93100000D02*
X79750000Y-84900000D01*
D14*
X79300000Y-89000000D02*
G75*
G02*
X79000000Y-89000000I-150000J0D01*
G01*
X79000000Y-89000000D02*
G75*
G02*
X79300000Y-89000000I150000J0D01*
G01*
D12*
%TO.C,U1*%
X93390000Y-62390000D02*
X93390000Y-68200000D01*
X93390000Y-62390000D02*
X111610000Y-62390000D01*
X93390000Y-82310000D02*
X93390000Y-82610000D01*
X93390000Y-82610000D02*
X111610000Y-82610000D01*
X111610000Y-62390000D02*
X111610000Y-68890000D01*
X111610000Y-82310000D02*
X111610000Y-82610000D01*
X93400000Y-68900000D02*
X92900000Y-68900000D01*
X93400000Y-68400000D01*
X93400000Y-68900000D01*
G36*
X93400000Y-68900000D02*
G01*
X92900000Y-68900000D01*
X93400000Y-68400000D01*
X93400000Y-68900000D01*
G37*
%TD*%
M02*
