%TF.GenerationSoftware,KiCad,Pcbnew,9.0.7*%
%TF.CreationDate,2026-02-26T00:41:08-05:00*%
%TF.ProjectId,schematic,73636865-6d61-4746-9963-2e6b69636164,rev?*%
%TF.SameCoordinates,Original*%
%TF.FileFunction,Copper,L1,Top*%
%TF.FilePolarity,Positive*%
%FSLAX46Y46*%
G04 Gerber Fmt 4.6, Leading zero omitted, Abs format (unit mm)*
G04 Created by KiCad (PCBNEW 9.0.7) date 2026-02-26 00:41:08*
%MOMM*%
%LPD*%
G01*
G04 APERTURE LIST*
G04 Aperture macros list*
%AMRoundRect*
0 Rectangle with rounded corners*
0 $1 Rounding radius*
0 $2 $3 $4 $5 $6 $7 $8 $9 X,Y pos of 4 corners*
0 Add a 4 corners polygon primitive as box body*
4,1,4,$2,$3,$4,$5,$6,$7,$8,$9,$2,$3,0*
0 Add four circle primitives for the rounded corners*
1,1,$1+$1,$2,$3*
1,1,$1+$1,$4,$5*
1,1,$1+$1,$6,$7*
1,1,$1+$1,$8,$9*
0 Add four rect primitives between the rounded corners*
20,1,$1+$1,$2,$3,$4,$5,0*
20,1,$1+$1,$4,$5,$6,$7,0*
20,1,$1+$1,$6,$7,$8,$9,0*
20,1,$1+$1,$8,$9,$2,$3,0*%
G04 Aperture macros list end*
%TA.AperFunction,SMDPad,CuDef*%
%ADD10RoundRect,0.140000X-0.140000X-0.170000X0.140000X-0.170000X0.140000X0.170000X-0.140000X0.170000X0*%
%TD*%
%TA.AperFunction,WasherPad*%
%ADD11C,6.400000*%
%TD*%
%TA.AperFunction,ComponentPad*%
%ADD12C,1.600000*%
%TD*%
%TA.AperFunction,ComponentPad*%
%ADD13RoundRect,0.250000X-0.550000X0.550000X-0.550000X-0.550000X0.550000X-0.550000X0.550000X0.550000X0*%
%TD*%
%TA.AperFunction,SMDPad,CuDef*%
%ADD14RoundRect,0.135000X-0.185000X0.135000X-0.185000X-0.135000X0.185000X-0.135000X0.185000X0.135000X0*%
%TD*%
%TA.AperFunction,SMDPad,CuDef*%
%ADD15RoundRect,0.375000X-0.625000X-0.375000X0.625000X-0.375000X0.625000X0.375000X-0.625000X0.375000X0*%
%TD*%
%TA.AperFunction,SMDPad,CuDef*%
%ADD16RoundRect,0.500000X-0.500000X-1.400000X0.500000X-1.400000X0.500000X1.400000X-0.500000X1.400000X0*%
%TD*%
%TA.AperFunction,SMDPad,CuDef*%
%ADD17RoundRect,0.135000X-0.135000X-0.185000X0.135000X-0.185000X0.135000X0.185000X-0.135000X0.185000X0*%
%TD*%
%TA.AperFunction,ComponentPad*%
%ADD18R,1.650000X1.650000*%
%TD*%
%TA.AperFunction,ComponentPad*%
%ADD19C,1.650000*%
%TD*%
%TA.AperFunction,SMDPad,CuDef*%
%ADD20RoundRect,0.250000X-0.650000X0.325000X-0.650000X-0.325000X0.650000X-0.325000X0.650000X0.325000X0*%
%TD*%
%TA.AperFunction,SMDPad,CuDef*%
%ADD21R,1.500000X0.900000*%
%TD*%
%TA.AperFunction,HeatsinkPad*%
%ADD22C,0.600000*%
%TD*%
%TA.AperFunction,HeatsinkPad*%
%ADD23R,2.900000X2.900000*%
%TD*%
%TA.AperFunction,Conductor*%
%ADD24C,0.200000*%
%TD*%
G04 APERTURE END LIST*
D10*
%TO.P,C1,1*%
%TO.N,+5V*%
X81500000Y-81000000D03*
%TO.P,C1,2*%
%TO.N,GND*%
X82460000Y-81000000D03*
%TD*%
D11*
%TO.P,REF\u002A\u002A,*%
%TO.N,*%
X124000000Y-66000000D03*
%TD*%
%TO.P,REF\u002A\u002A,*%
%TO.N,*%
X124000000Y-95000000D03*
%TD*%
%TO.P,REF\u002A\u002A,*%
%TO.N,*%
X76000000Y-95000000D03*
%TD*%
%TO.P,REF\u002A\u002A,*%
%TO.N,*%
X76000000Y-66000000D03*
%TD*%
D12*
%TO.P,U3,4*%
%TO.N,/optoisolator_button_2*%
X118540000Y-80620000D03*
%TO.P,U3,3*%
%TO.N,/optoisolator_button_1*%
X116000000Y-80620000D03*
%TO.P,U3,2*%
%TO.N,GND*%
X116000000Y-73000000D03*
D13*
%TO.P,U3,1*%
%TO.N,Net-(R1-Pad2)*%
X118540000Y-73000000D03*
%TD*%
D14*
%TO.P,R2,2*%
%TO.N,Net-(U1-EN)*%
X91000000Y-71020000D03*
%TO.P,R2,1*%
%TO.N,+3.3V*%
X91000000Y-70000000D03*
%TD*%
D15*
%TO.P,U2,1,GND*%
%TO.N,GND*%
X81700000Y-73700000D03*
%TO.P,U2,2,VO*%
%TO.N,+3.3V*%
X81700000Y-76000000D03*
D16*
X88000000Y-76000000D03*
D15*
%TO.P,U2,3,VI*%
%TO.N,+5V*%
X81700000Y-78300000D03*
%TD*%
D17*
%TO.P,R1,1*%
%TO.N,/optoisolator_control*%
X117520000Y-71000000D03*
%TO.P,R1,2*%
%TO.N,Net-(R1-Pad2)*%
X118540000Y-71000000D03*
%TD*%
D18*
%TO.P,J3,1,1*%
%TO.N,/optoisolator_button_1*%
X112500000Y-89000000D03*
D19*
%TO.P,J3,2,2*%
%TO.N,/optoisolator_button_2*%
X116000000Y-89000000D03*
%TD*%
D18*
%TO.P,J2,1,1*%
%TO.N,/reed_closed_pos*%
X102500000Y-89000000D03*
D19*
%TO.P,J2,2,2*%
%TO.N,GND*%
X106000000Y-89000000D03*
%TD*%
D18*
%TO.P,J1,1,1*%
%TO.N,/reed_open_pos*%
X92500000Y-89000000D03*
D19*
%TO.P,J1,2,2*%
%TO.N,GND*%
X96000000Y-89000000D03*
%TD*%
D20*
%TO.P,D1,1,K*%
%TO.N,+3.3V*%
X91000000Y-76000000D03*
%TO.P,D1,2,A*%
%TO.N,GND*%
X91000000Y-78950000D03*
%TD*%
D18*
%TO.P,J4,1,1*%
%TO.N,+5V*%
X81500000Y-89000000D03*
D19*
%TO.P,J4,2,2*%
%TO.N,GND*%
X85000000Y-89000000D03*
%TD*%
D21*
%TO.P,U1,1,3V3*%
%TO.N,+3.3V*%
X93750000Y-69600000D03*
%TO.P,U1,2,EN*%
%TO.N,Net-(U1-EN)*%
X93750000Y-71100000D03*
%TO.P,U1,3,IO4*%
%TO.N,unconnected-(U1-IO4-Pad3)*%
X93750000Y-72600000D03*
%TO.P,U1,4,IO5*%
%TO.N,unconnected-(U1-IO5-Pad4)*%
X93750000Y-74100000D03*
%TO.P,U1,5,IO6*%
%TO.N,unconnected-(U1-IO6-Pad5)*%
X93750000Y-75600000D03*
%TO.P,U1,6,IO7*%
%TO.N,unconnected-(U1-IO7-Pad6)*%
X93750000Y-77100000D03*
%TO.P,U1,7,IO8*%
%TO.N,unconnected-(U1-IO8-Pad7)*%
X93750000Y-78600000D03*
%TO.P,U1,8,IO9*%
%TO.N,/reed_open_pos*%
X93750000Y-80100000D03*
%TO.P,U1,9,GND*%
%TO.N,GND*%
X93750000Y-81600000D03*
%TO.P,U1,10,IO10*%
%TO.N,/reed_closed_pos*%
X111250000Y-81600000D03*
%TO.P,U1,11,IO20/RXD*%
%TO.N,unconnected-(U1-IO20{slash}RXD-Pad11)*%
X111250000Y-80100000D03*
%TO.P,U1,12,IO21/TXD*%
%TO.N,unconnected-(U1-IO21{slash}TXD-Pad12)*%
X111250000Y-78600000D03*
%TO.P,U1,13,IO18*%
%TO.N,unconnected-(U1-IO18-Pad13)*%
X111250000Y-77100000D03*
%TO.P,U1,14,IO19*%
%TO.N,unconnected-(U1-IO19-Pad14)*%
X111250000Y-75600000D03*
%TO.P,U1,15,IO3*%
%TO.N,unconnected-(U1-IO3-Pad15)*%
X111250000Y-74100000D03*
%TO.P,U1,16,IO2*%
%TO.N,unconnected-(U1-IO2-Pad16)*%
X111250000Y-72600000D03*
%TO.P,U1,17,IO1*%
%TO.N,unconnected-(U1-IO1-Pad17)*%
X111250000Y-71100000D03*
%TO.P,U1,18,IO0*%
%TO.N,/optoisolator_control*%
X111250000Y-69600000D03*
D22*
%TO.P,U1,19,GND*%
%TO.N,GND*%
X102360000Y-75250000D03*
X102360000Y-76350000D03*
X102910000Y-74700000D03*
X102910000Y-75800000D03*
X102910000Y-76900000D03*
X103460000Y-75250000D03*
D23*
X103460000Y-75800000D03*
D22*
X103460000Y-76350000D03*
X104010000Y-74700000D03*
X104010000Y-75800000D03*
X104010000Y-76900000D03*
X104560000Y-75250000D03*
X104560000Y-76350000D03*
%TD*%
D24*
%TO.N,+3.3V*%
X91000000Y-76000000D02*
X88000000Y-76000000D01*
%TO.N,+5V*%
X81500000Y-81000000D02*
X81500000Y-78500000D01*
X81500000Y-78500000D02*
X81700000Y-78300000D01*
X81500000Y-89000000D02*
X81500000Y-81000000D01*
%TO.N,+3.3V*%
X81700000Y-76000000D02*
X88000000Y-76000000D01*
%TO.N,/reed_closed_pos*%
X102500000Y-89000000D02*
X109900000Y-81600000D01*
X109900000Y-81600000D02*
X111250000Y-81600000D01*
%TO.N,/reed_open_pos*%
X92500000Y-89000000D02*
X92500000Y-81050000D01*
X92500000Y-81050000D02*
X93450000Y-80100000D01*
X93450000Y-80100000D02*
X93750000Y-80100000D01*
%TO.N,+5V*%
X81500000Y-89000000D02*
X81360000Y-88860000D01*
%TO.N,Net-(R1-Pad2)*%
X118540000Y-71000000D02*
X118540000Y-73000000D01*
%TO.N,+3.3V*%
X88000000Y-76000000D02*
X88500000Y-76000000D01*
X88500000Y-76000000D02*
X88550000Y-75950000D01*
X88000000Y-76000000D02*
X88000000Y-73000000D01*
X88000000Y-73000000D02*
X91000000Y-70000000D01*
%TO.N,/optoisolator_control*%
X111250000Y-69600000D02*
X116120000Y-69600000D01*
X116120000Y-69600000D02*
X117520000Y-71000000D01*
%TO.N,/optoisolator_button_2*%
X116000000Y-89000000D02*
X116000000Y-88500000D01*
X116000000Y-88500000D02*
X118540000Y-85960000D01*
X118540000Y-85960000D02*
X118540000Y-80620000D01*
%TO.N,/optoisolator_button_1*%
X112500000Y-89000000D02*
X114000000Y-89000000D01*
X114000000Y-89000000D02*
X114000000Y-87500000D01*
X114000000Y-87500000D02*
X116000000Y-85500000D01*
X116000000Y-85500000D02*
X116000000Y-80620000D01*
%TO.N,Net-(U1-EN)*%
X91000000Y-71020000D02*
X93670000Y-71020000D01*
X93670000Y-71020000D02*
X93750000Y-71100000D01*
%TO.N,+3.3V*%
X91000000Y-70000000D02*
X93350000Y-70000000D01*
X93350000Y-70000000D02*
X93750000Y-69600000D01*
%TD*%
%TA.AperFunction,Conductor*%
%TO.N,GND*%
G36*
X74807722Y-69505339D02*
G01*
X75099767Y-69593930D01*
X75099773Y-69593931D01*
X75099776Y-69593932D01*
X75099787Y-69593935D01*
X75424862Y-69658595D01*
X75456369Y-69664862D01*
X75818206Y-69700500D01*
X75818209Y-69700500D01*
X76181791Y-69700500D01*
X76181794Y-69700500D01*
X76543631Y-69664862D01*
X76660342Y-69641647D01*
X76900212Y-69593935D01*
X76900223Y-69593932D01*
X76900223Y-69593931D01*
X76900233Y-69593930D01*
X77192278Y-69505339D01*
X77228273Y-69500000D01*
X90094113Y-69500000D01*
X90161152Y-69519685D01*
X90206907Y-69572489D01*
X90216851Y-69641647D01*
X90213189Y-69658595D01*
X90182335Y-69764791D01*
X90182334Y-69764797D01*
X90179500Y-69800811D01*
X90179500Y-69919901D01*
X90159815Y-69986940D01*
X90143181Y-70007582D01*
X87631286Y-72519478D01*
X87519481Y-72631282D01*
X87519479Y-72631285D01*
X87469361Y-72718094D01*
X87469359Y-72718096D01*
X87440425Y-72768209D01*
X87440424Y-72768210D01*
X87440423Y-72768215D01*
X87399499Y-72920943D01*
X87399499Y-72920945D01*
X87399499Y-73089046D01*
X87399500Y-73089059D01*
X87399500Y-73494609D01*
X87379815Y-73561648D01*
X87327011Y-73607403D01*
X87309612Y-73613825D01*
X87126953Y-73666090D01*
X87126951Y-73666090D01*
X87126951Y-73666091D01*
X86946593Y-73760302D01*
X86946591Y-73760303D01*
X86946590Y-73760304D01*
X86788890Y-73888890D01*
X86660304Y-74046590D01*
X86566089Y-74226954D01*
X86510114Y-74422583D01*
X86510113Y-74422586D01*
X86499500Y-74541966D01*
X86499500Y-75275500D01*
X86479815Y-75342539D01*
X86427011Y-75388294D01*
X86375500Y-75399500D01*
X83266916Y-75399500D01*
X83199877Y-75379815D01*
X83154122Y-75327011D01*
X83152425Y-75322887D01*
X83067032Y-75150707D01*
X83067030Y-75150704D01*
X82947722Y-75002278D01*
X82947721Y-75002277D01*
X82799295Y-74882969D01*
X82799292Y-74882967D01*
X82628697Y-74798360D01*
X82443892Y-74752400D01*
X82422506Y-74750950D01*
X82401123Y-74749500D01*
X82401120Y-74749500D01*
X80998877Y-74749500D01*
X80998874Y-74749501D01*
X80956113Y-74752399D01*
X80956112Y-74752399D01*
X80771303Y-74798360D01*
X80600707Y-74882967D01*
X80600704Y-74882969D01*
X80452278Y-75002277D01*
X80452277Y-75002278D01*
X80332969Y-75150704D01*
X80332967Y-75150707D01*
X80248360Y-75321302D01*
X80202400Y-75506107D01*
X80199500Y-75548879D01*
X80199500Y-76451122D01*
X80199501Y-76451125D01*
X80202399Y-76493886D01*
X80202399Y-76493887D01*
X80228913Y-76600500D01*
X80246940Y-76672989D01*
X80248360Y-76678696D01*
X80332967Y-76849292D01*
X80332969Y-76849295D01*
X80452277Y-76997721D01*
X80452278Y-76997722D01*
X80521486Y-77053353D01*
X80561405Y-77110696D01*
X80563985Y-77180518D01*
X80528406Y-77240651D01*
X80521486Y-77246647D01*
X80452278Y-77302277D01*
X80452277Y-77302278D01*
X80332969Y-77450704D01*
X80332967Y-77450707D01*
X80248360Y-77621302D01*
X80202400Y-77806107D01*
X80199500Y-77848879D01*
X80199500Y-78751122D01*
X80199501Y-78751125D01*
X80202399Y-78793886D01*
X80202399Y-78793887D01*
X80248360Y-78978696D01*
X80332967Y-79149292D01*
X80332969Y-79149295D01*
X80452277Y-79297721D01*
X80452278Y-79297722D01*
X80600704Y-79417030D01*
X80600707Y-79417032D01*
X80686005Y-79459335D01*
X80771307Y-79501641D01*
X80805427Y-79510126D01*
X80865732Y-79545406D01*
X80897392Y-79607691D01*
X80899500Y-79630460D01*
X80899500Y-80333333D01*
X80879815Y-80400372D01*
X80863181Y-80421014D01*
X80849887Y-80434307D01*
X80849881Y-80434315D01*
X80767505Y-80573606D01*
X80767504Y-80573609D01*
X80722357Y-80729002D01*
X80722356Y-80729008D01*
X80719500Y-80765302D01*
X80719500Y-81234697D01*
X80722356Y-81270991D01*
X80722357Y-81270997D01*
X80767504Y-81426390D01*
X80767505Y-81426393D01*
X80767506Y-81426395D01*
X80849883Y-81565687D01*
X80863180Y-81578984D01*
X80896666Y-81640305D01*
X80899500Y-81666666D01*
X80899500Y-87550500D01*
X80879815Y-87617539D01*
X80827011Y-87663294D01*
X80775501Y-87674500D01*
X80627130Y-87674500D01*
X80627123Y-87674501D01*
X80567516Y-87680908D01*
X80432671Y-87731202D01*
X80432664Y-87731206D01*
X80317455Y-87817452D01*
X80317452Y-87817455D01*
X80231206Y-87932664D01*
X80231202Y-87932671D01*
X80180908Y-88067517D01*
X80174501Y-88127116D01*
X80174501Y-88127123D01*
X80174500Y-88127135D01*
X80174500Y-89872870D01*
X80174501Y-89872876D01*
X80180908Y-89932483D01*
X80231202Y-90067328D01*
X80231206Y-90067335D01*
X80317452Y-90182544D01*
X80317455Y-90182547D01*
X80432664Y-90268793D01*
X80432671Y-90268797D01*
X80567517Y-90319091D01*
X80567516Y-90319091D01*
X80574444Y-90319835D01*
X80627127Y-90325500D01*
X82372872Y-90325499D01*
X82432483Y-90319091D01*
X82567331Y-90268796D01*
X82682546Y-90182546D01*
X82768796Y-90067331D01*
X82819091Y-89932483D01*
X82825500Y-89872873D01*
X82825499Y-88127128D01*
X82819091Y-88067517D01*
X82789793Y-87988966D01*
X82768797Y-87932671D01*
X82768793Y-87932664D01*
X82682547Y-87817455D01*
X82682544Y-87817452D01*
X82567335Y-87731206D01*
X82567328Y-87731202D01*
X82432482Y-87680908D01*
X82432483Y-87680908D01*
X82372883Y-87674501D01*
X82372881Y-87674500D01*
X82372873Y-87674500D01*
X82372865Y-87674500D01*
X82224500Y-87674500D01*
X82157461Y-87654815D01*
X82111706Y-87602011D01*
X82100500Y-87550500D01*
X82100500Y-81666666D01*
X82120185Y-81599627D01*
X82136816Y-81578987D01*
X82150117Y-81565687D01*
X82232494Y-81426395D01*
X82277643Y-81270993D01*
X82280500Y-81234690D01*
X82280500Y-80765310D01*
X82277643Y-80729007D01*
X82275709Y-80722351D01*
X82232495Y-80573609D01*
X82232494Y-80573606D01*
X82232494Y-80573605D01*
X82150117Y-80434313D01*
X82150115Y-80434311D01*
X82150112Y-80434307D01*
X82136819Y-80421014D01*
X82103334Y-80359691D01*
X82100500Y-80333333D01*
X82100500Y-79674499D01*
X82120185Y-79607460D01*
X82172989Y-79561705D01*
X82224500Y-79550499D01*
X82401123Y-79550499D01*
X82401123Y-79550498D01*
X82443889Y-79547600D01*
X82628693Y-79501641D01*
X82799296Y-79417030D01*
X82947722Y-79297722D01*
X83067030Y-79149296D01*
X83151641Y-78978693D01*
X83197600Y-78793889D01*
X83200500Y-78751123D01*
X83200499Y-77848878D01*
X83197600Y-77806111D01*
X83151641Y-77621307D01*
X83070667Y-77458037D01*
X83067032Y-77450707D01*
X83067030Y-77450704D01*
X82947722Y-77302278D01*
X82947721Y-77302277D01*
X82878514Y-77246647D01*
X82838595Y-77189304D01*
X82836015Y-77119482D01*
X82871594Y-77059349D01*
X82878514Y-77053353D01*
X82887909Y-77045800D01*
X82947722Y-76997722D01*
X83067030Y-76849296D01*
X83067032Y-76849292D01*
X83154628Y-76672671D01*
X83156535Y-76673617D01*
X83192131Y-76625590D01*
X83257478Y-76600860D01*
X83266916Y-76600500D01*
X86375501Y-76600500D01*
X86442540Y-76620185D01*
X86488295Y-76672989D01*
X86499501Y-76724500D01*
X86499501Y-77458034D01*
X86510113Y-77577415D01*
X86566089Y-77773045D01*
X86566090Y-77773048D01*
X86566091Y-77773049D01*
X86660302Y-77953407D01*
X86660304Y-77953409D01*
X86788890Y-78111109D01*
X86882803Y-78187684D01*
X86946593Y-78239698D01*
X87126951Y-78333909D01*
X87322582Y-78389886D01*
X87441963Y-78400500D01*
X88558036Y-78400499D01*
X88677418Y-78389886D01*
X88873049Y-78333909D01*
X89053407Y-78239698D01*
X89211109Y-78111109D01*
X89339698Y-77953407D01*
X89433909Y-77773049D01*
X89489886Y-77577418D01*
X89500500Y-77458037D01*
X89500500Y-76814573D01*
X89520185Y-76747535D01*
X89572989Y-76701780D01*
X89642147Y-76691836D01*
X89705703Y-76720861D01*
X89730038Y-76749477D01*
X89757288Y-76793656D01*
X89881344Y-76917712D01*
X90030666Y-77009814D01*
X90197203Y-77064999D01*
X90299991Y-77075500D01*
X91700008Y-77075499D01*
X91802797Y-77064999D01*
X91969334Y-77009814D01*
X92118656Y-76917712D01*
X92242712Y-76793656D01*
X92269962Y-76749475D01*
X92321908Y-76702752D01*
X92390870Y-76691529D01*
X92454953Y-76719372D01*
X92493809Y-76777440D01*
X92499500Y-76814573D01*
X92499500Y-77597870D01*
X92499501Y-77597876D01*
X92505908Y-77657483D01*
X92559303Y-77800641D01*
X92557575Y-77801285D01*
X92570095Y-77858853D01*
X92558310Y-77898988D01*
X92559303Y-77899359D01*
X92505908Y-78042517D01*
X92499501Y-78102116D01*
X92499501Y-78102123D01*
X92499500Y-78102135D01*
X92499500Y-79097870D01*
X92499501Y-79097876D01*
X92505908Y-79157483D01*
X92559303Y-79300641D01*
X92557575Y-79301285D01*
X92570095Y-79358853D01*
X92558310Y-79398988D01*
X92559303Y-79399359D01*
X92505908Y-79542517D01*
X92499501Y-79602116D01*
X92499501Y-79602123D01*
X92499500Y-79602135D01*
X92499500Y-80149902D01*
X92479815Y-80216941D01*
X92463181Y-80237583D01*
X92019481Y-80681282D01*
X92019479Y-80681285D01*
X91970969Y-80765309D01*
X91970967Y-80765311D01*
X91940425Y-80818209D01*
X91940424Y-80818210D01*
X91934274Y-80841163D01*
X91899499Y-80970943D01*
X91899499Y-80970945D01*
X91899499Y-81139046D01*
X91899500Y-81139059D01*
X91899500Y-87550500D01*
X91879815Y-87617539D01*
X91827011Y-87663294D01*
X91775501Y-87674500D01*
X91627130Y-87674500D01*
X91627123Y-87674501D01*
X91567516Y-87680908D01*
X91432671Y-87731202D01*
X91432664Y-87731206D01*
X91317455Y-87817452D01*
X91317452Y-87817455D01*
X91231206Y-87932664D01*
X91231202Y-87932671D01*
X91180908Y-88067517D01*
X91174501Y-88127116D01*
X91174501Y-88127123D01*
X91174500Y-88127135D01*
X91174500Y-89872870D01*
X91174501Y-89872876D01*
X91180908Y-89932483D01*
X91231202Y-90067328D01*
X91231206Y-90067335D01*
X91317452Y-90182544D01*
X91317455Y-90182547D01*
X91432664Y-90268793D01*
X91432671Y-90268797D01*
X91567517Y-90319091D01*
X91567516Y-90319091D01*
X91574444Y-90319835D01*
X91627127Y-90325500D01*
X93372872Y-90325499D01*
X93432483Y-90319091D01*
X93567331Y-90268796D01*
X93682546Y-90182546D01*
X93768796Y-90067331D01*
X93819091Y-89932483D01*
X93825500Y-89872873D01*
X93825499Y-88127128D01*
X93819091Y-88067517D01*
X93789793Y-87988966D01*
X93768797Y-87932671D01*
X93768793Y-87932664D01*
X93682547Y-87817455D01*
X93682544Y-87817452D01*
X93567335Y-87731206D01*
X93567328Y-87731202D01*
X93432482Y-87680908D01*
X93432483Y-87680908D01*
X93372883Y-87674501D01*
X93372881Y-87674500D01*
X93372873Y-87674500D01*
X93372865Y-87674500D01*
X93224500Y-87674500D01*
X93157461Y-87654815D01*
X93111706Y-87602011D01*
X93100500Y-87550500D01*
X93100500Y-81350096D01*
X93109144Y-81320655D01*
X93115668Y-81290669D01*
X93119422Y-81285653D01*
X93120185Y-81283057D01*
X93136815Y-81262419D01*
X93312416Y-81086817D01*
X93373739Y-81053333D01*
X93400097Y-81050499D01*
X94547871Y-81050499D01*
X94547872Y-81050499D01*
X94607483Y-81044091D01*
X94742331Y-80993796D01*
X94857546Y-80907546D01*
X94943796Y-80792331D01*
X94994091Y-80657483D01*
X95000500Y-80597873D01*
X95000499Y-79602128D01*
X94994091Y-79542517D01*
X94943796Y-79407669D01*
X94943794Y-79407666D01*
X94940696Y-79399360D01*
X94942426Y-79398714D01*
X94929902Y-79341163D01*
X94941691Y-79301011D01*
X94940696Y-79300640D01*
X94943794Y-79292333D01*
X94943796Y-79292331D01*
X94994091Y-79157483D01*
X95000500Y-79097873D01*
X95000499Y-78102128D01*
X94994091Y-78042517D01*
X94943796Y-77907669D01*
X94943794Y-77907666D01*
X94940696Y-77899360D01*
X94942426Y-77898714D01*
X94929902Y-77841163D01*
X94941691Y-77801011D01*
X94940696Y-77800640D01*
X94943794Y-77792333D01*
X94943796Y-77792331D01*
X94994091Y-77657483D01*
X95000500Y-77597873D01*
X95000499Y-76602128D01*
X94994091Y-76542517D01*
X94943796Y-76407669D01*
X94943794Y-76407666D01*
X94940696Y-76399360D01*
X94942426Y-76398714D01*
X94929902Y-76341163D01*
X94941691Y-76301011D01*
X94940696Y-76300640D01*
X94943794Y-76292333D01*
X94943796Y-76292331D01*
X94994091Y-76157483D01*
X95000500Y-76097873D01*
X95000499Y-75102128D01*
X94994091Y-75042517D01*
X94943796Y-74907669D01*
X94943794Y-74907666D01*
X94940696Y-74899360D01*
X94942426Y-74898714D01*
X94929902Y-74841163D01*
X94941691Y-74801011D01*
X94940696Y-74800640D01*
X94943794Y-74792333D01*
X94943796Y-74792331D01*
X94994091Y-74657483D01*
X95000500Y-74597873D01*
X95000499Y-73602128D01*
X94994091Y-73542517D01*
X94943796Y-73407669D01*
X94943794Y-73407666D01*
X94940696Y-73399360D01*
X94942426Y-73398714D01*
X94929902Y-73341163D01*
X94941691Y-73301011D01*
X94940696Y-73300640D01*
X94943794Y-73292333D01*
X94943796Y-73292331D01*
X94994091Y-73157483D01*
X95000500Y-73097873D01*
X95000499Y-72102128D01*
X94994091Y-72042517D01*
X94943796Y-71907669D01*
X94943794Y-71907666D01*
X94940696Y-71899360D01*
X94942426Y-71898714D01*
X94929902Y-71841163D01*
X94941691Y-71801011D01*
X94940696Y-71800640D01*
X94943794Y-71792333D01*
X94943796Y-71792331D01*
X94994091Y-71657483D01*
X95000500Y-71597873D01*
X95000499Y-70602128D01*
X94994091Y-70542517D01*
X94943796Y-70407669D01*
X94943794Y-70407666D01*
X94940696Y-70399360D01*
X94942426Y-70398714D01*
X94929902Y-70341163D01*
X94941691Y-70301011D01*
X94940696Y-70300640D01*
X94943794Y-70292333D01*
X94943796Y-70292331D01*
X94994091Y-70157483D01*
X95000500Y-70097873D01*
X95000499Y-69623998D01*
X95020183Y-69556961D01*
X95072987Y-69511206D01*
X95124499Y-69500000D01*
X109875500Y-69500000D01*
X109942539Y-69519685D01*
X109988294Y-69572489D01*
X109999500Y-69624000D01*
X109999500Y-70097870D01*
X109999501Y-70097876D01*
X110005908Y-70157483D01*
X110059303Y-70300641D01*
X110057575Y-70301285D01*
X110070095Y-70358853D01*
X110058310Y-70398988D01*
X110059303Y-70399359D01*
X110005908Y-70542517D01*
X109999501Y-70602116D01*
X109999501Y-70602123D01*
X109999500Y-70602135D01*
X109999500Y-71597870D01*
X109999501Y-71597876D01*
X110005908Y-71657483D01*
X110059303Y-71800641D01*
X110057575Y-71801285D01*
X110070095Y-71858853D01*
X110058310Y-71898988D01*
X110059303Y-71899359D01*
X110005908Y-72042517D01*
X109999501Y-72102116D01*
X109999501Y-72102123D01*
X109999500Y-72102135D01*
X109999500Y-73097870D01*
X109999501Y-73097876D01*
X110005908Y-73157483D01*
X110059303Y-73300641D01*
X110057575Y-73301285D01*
X110070095Y-73358853D01*
X110058310Y-73398988D01*
X110059303Y-73399359D01*
X110005908Y-73542517D01*
X109999728Y-73600008D01*
X109999501Y-73602123D01*
X109999500Y-73602135D01*
X109999500Y-74597870D01*
X109999501Y-74597876D01*
X110005908Y-74657483D01*
X110059303Y-74800641D01*
X110057575Y-74801285D01*
X110070095Y-74858853D01*
X110058310Y-74898988D01*
X110059303Y-74899359D01*
X110005908Y-75042517D01*
X109999501Y-75102116D01*
X109999501Y-75102123D01*
X109999500Y-75102135D01*
X109999500Y-76097870D01*
X109999501Y-76097876D01*
X110005908Y-76157483D01*
X110059303Y-76300641D01*
X110057575Y-76301285D01*
X110070095Y-76358853D01*
X110058310Y-76398988D01*
X110059303Y-76399359D01*
X110005908Y-76542517D01*
X109999675Y-76600500D01*
X109999501Y-76602123D01*
X109999500Y-76602135D01*
X109999500Y-77597870D01*
X109999501Y-77597876D01*
X110005908Y-77657483D01*
X110059303Y-77800641D01*
X110057575Y-77801285D01*
X110070095Y-77858853D01*
X110058310Y-77898988D01*
X110059303Y-77899359D01*
X110005908Y-78042517D01*
X109999501Y-78102116D01*
X109999501Y-78102123D01*
X109999500Y-78102135D01*
X109999500Y-79097870D01*
X109999501Y-79097876D01*
X110005908Y-79157483D01*
X110059303Y-79300641D01*
X110057575Y-79301285D01*
X110070095Y-79358853D01*
X110058310Y-79398988D01*
X110059303Y-79399359D01*
X110005908Y-79542517D01*
X109999501Y-79602116D01*
X109999501Y-79602123D01*
X109999500Y-79602135D01*
X109999500Y-80597870D01*
X109999501Y-80597876D01*
X110005908Y-80657483D01*
X110056809Y-80793956D01*
X110057276Y-80794457D01*
X110057538Y-80795911D01*
X110059303Y-80800641D01*
X110058451Y-80800958D01*
X110063115Y-80826759D01*
X110070095Y-80858853D01*
X110069427Y-80861678D01*
X110069705Y-80863212D01*
X110067096Y-80871550D01*
X110060989Y-80897413D01*
X110057413Y-80906053D01*
X110056204Y-80907669D01*
X110051261Y-80920921D01*
X110050437Y-80922913D01*
X110029841Y-80948488D01*
X110010171Y-80974766D01*
X110008040Y-80975560D01*
X110006615Y-80977331D01*
X109975479Y-80987705D01*
X109944707Y-80999184D01*
X109940592Y-80999330D01*
X109940328Y-80999419D01*
X109940057Y-80999350D01*
X109935859Y-80999500D01*
X109820940Y-80999500D01*
X109780019Y-81010464D01*
X109780019Y-81010465D01*
X109742751Y-81020451D01*
X109668214Y-81040423D01*
X109668209Y-81040426D01*
X109531290Y-81119475D01*
X109531282Y-81119481D01*
X109419478Y-81231286D01*
X103012582Y-87638181D01*
X102951259Y-87671666D01*
X102924901Y-87674500D01*
X101627129Y-87674500D01*
X101627123Y-87674501D01*
X101567516Y-87680908D01*
X101432671Y-87731202D01*
X101432664Y-87731206D01*
X101317455Y-87817452D01*
X101317452Y-87817455D01*
X101231206Y-87932664D01*
X101231202Y-87932671D01*
X101180908Y-88067517D01*
X101174501Y-88127116D01*
X101174501Y-88127123D01*
X101174500Y-88127135D01*
X101174500Y-89872870D01*
X101174501Y-89872876D01*
X101180908Y-89932483D01*
X101231202Y-90067328D01*
X101231206Y-90067335D01*
X101317452Y-90182544D01*
X101317455Y-90182547D01*
X101432664Y-90268793D01*
X101432671Y-90268797D01*
X101567517Y-90319091D01*
X101567516Y-90319091D01*
X101574444Y-90319835D01*
X101627127Y-90325500D01*
X103372872Y-90325499D01*
X103432483Y-90319091D01*
X103567331Y-90268796D01*
X103682546Y-90182546D01*
X103768796Y-90067331D01*
X103819091Y-89932483D01*
X103825500Y-89872873D01*
X103825499Y-88575095D01*
X103845184Y-88508057D01*
X103861813Y-88487420D01*
X104222098Y-88127135D01*
X111174500Y-88127135D01*
X111174500Y-89872870D01*
X111174501Y-89872876D01*
X111180908Y-89932483D01*
X111231202Y-90067328D01*
X111231206Y-90067335D01*
X111317452Y-90182544D01*
X111317455Y-90182547D01*
X111432664Y-90268793D01*
X111432671Y-90268797D01*
X111567517Y-90319091D01*
X111567516Y-90319091D01*
X111574444Y-90319835D01*
X111627127Y-90325500D01*
X113372872Y-90325499D01*
X113432483Y-90319091D01*
X113567331Y-90268796D01*
X113682546Y-90182546D01*
X113768796Y-90067331D01*
X113819091Y-89932483D01*
X113825500Y-89872873D01*
X113825500Y-89724500D01*
X113845185Y-89657461D01*
X113897989Y-89611706D01*
X113949500Y-89600500D01*
X114079055Y-89600500D01*
X114079057Y-89600500D01*
X114231784Y-89559577D01*
X114368716Y-89480520D01*
X114480520Y-89368716D01*
X114498402Y-89337742D01*
X114548967Y-89289528D01*
X114617574Y-89276304D01*
X114682439Y-89302271D01*
X114722969Y-89359185D01*
X114723720Y-89361424D01*
X114771612Y-89508820D01*
X114847349Y-89657461D01*
X114866330Y-89694714D01*
X114988965Y-89863505D01*
X115136495Y-90011035D01*
X115305286Y-90133670D01*
X115393116Y-90178421D01*
X115491179Y-90228387D01*
X115491181Y-90228387D01*
X115491184Y-90228389D01*
X115597545Y-90262948D01*
X115689610Y-90292862D01*
X115895676Y-90325500D01*
X115895681Y-90325500D01*
X116104324Y-90325500D01*
X116310389Y-90292862D01*
X116508816Y-90228389D01*
X116694714Y-90133670D01*
X116863505Y-90011035D01*
X117011035Y-89863505D01*
X117133670Y-89694714D01*
X117228389Y-89508816D01*
X117292862Y-89310389D01*
X117296166Y-89289528D01*
X117325500Y-89104324D01*
X117325500Y-88895675D01*
X117292862Y-88689610D01*
X117228387Y-88491179D01*
X117144285Y-88326120D01*
X117131389Y-88257451D01*
X117157665Y-88192710D01*
X117167080Y-88182153D01*
X118898506Y-86450728D01*
X118898511Y-86450724D01*
X118908714Y-86440520D01*
X118908716Y-86440520D01*
X119020520Y-86328716D01*
X119099577Y-86191784D01*
X119140500Y-86039057D01*
X119140500Y-81849601D01*
X119160185Y-81782562D01*
X119208206Y-81739116D01*
X119221610Y-81732287D01*
X119387219Y-81611966D01*
X119531966Y-81467219D01*
X119531968Y-81467215D01*
X119531971Y-81467213D01*
X119617060Y-81350096D01*
X119652287Y-81301610D01*
X119745220Y-81119219D01*
X119808477Y-80924534D01*
X119840500Y-80722352D01*
X119840500Y-80517648D01*
X119827300Y-80434307D01*
X119808477Y-80315465D01*
X119776464Y-80216941D01*
X119745220Y-80120781D01*
X119745218Y-80120778D01*
X119745218Y-80120776D01*
X119699515Y-80031080D01*
X119652287Y-79938390D01*
X119644556Y-79927749D01*
X119531971Y-79772786D01*
X119387213Y-79628028D01*
X119221613Y-79507715D01*
X119221612Y-79507714D01*
X119221610Y-79507713D01*
X119164653Y-79478691D01*
X119039223Y-79414781D01*
X118844534Y-79351522D01*
X118669995Y-79323878D01*
X118642352Y-79319500D01*
X118437648Y-79319500D01*
X118413329Y-79323351D01*
X118235465Y-79351522D01*
X118040776Y-79414781D01*
X117858386Y-79507715D01*
X117692786Y-79628028D01*
X117548028Y-79772786D01*
X117427715Y-79938386D01*
X117380485Y-80031080D01*
X117332510Y-80081876D01*
X117264689Y-80098671D01*
X117198554Y-80076134D01*
X117159515Y-80031080D01*
X117158883Y-80029840D01*
X117112287Y-79938390D01*
X117104556Y-79927749D01*
X116991971Y-79772786D01*
X116847213Y-79628028D01*
X116681613Y-79507715D01*
X116681612Y-79507714D01*
X116681610Y-79507713D01*
X116624653Y-79478691D01*
X116499223Y-79414781D01*
X116304534Y-79351522D01*
X116129995Y-79323878D01*
X116102352Y-79319500D01*
X115897648Y-79319500D01*
X115873329Y-79323351D01*
X115695465Y-79351522D01*
X115500776Y-79414781D01*
X115318386Y-79507715D01*
X115152786Y-79628028D01*
X115008028Y-79772786D01*
X114887715Y-79938386D01*
X114794781Y-80120776D01*
X114731522Y-80315465D01*
X114699500Y-80517648D01*
X114699500Y-80722351D01*
X114731522Y-80924534D01*
X114794781Y-81119223D01*
X114853619Y-81234697D01*
X114886248Y-81298735D01*
X114887715Y-81301613D01*
X115008028Y-81467213D01*
X115008034Y-81467219D01*
X115152781Y-81611966D01*
X115318390Y-81732287D01*
X115331793Y-81739116D01*
X115382589Y-81787088D01*
X115399500Y-81849601D01*
X115399500Y-85199902D01*
X115379815Y-85266941D01*
X115363181Y-85287583D01*
X113519481Y-87131282D01*
X113519479Y-87131285D01*
X113469361Y-87218094D01*
X113469359Y-87218096D01*
X113440425Y-87268209D01*
X113440424Y-87268210D01*
X113440423Y-87268215D01*
X113399499Y-87420943D01*
X113399499Y-87420945D01*
X113399499Y-87550500D01*
X113379814Y-87617539D01*
X113327010Y-87663294D01*
X113275499Y-87674500D01*
X111627129Y-87674500D01*
X111627123Y-87674501D01*
X111567516Y-87680908D01*
X111432671Y-87731202D01*
X111432664Y-87731206D01*
X111317455Y-87817452D01*
X111317452Y-87817455D01*
X111231206Y-87932664D01*
X111231202Y-87932671D01*
X111180908Y-88067517D01*
X111174501Y-88127116D01*
X111174501Y-88127123D01*
X111174500Y-88127135D01*
X104222098Y-88127135D01*
X109955316Y-82393917D01*
X110016637Y-82360434D01*
X110086329Y-82365418D01*
X110135342Y-82402109D01*
X110136180Y-82401272D01*
X110142009Y-82407100D01*
X110142262Y-82407290D01*
X110142454Y-82407546D01*
X110142457Y-82407548D01*
X110257664Y-82493793D01*
X110257671Y-82493797D01*
X110392517Y-82544091D01*
X110392516Y-82544091D01*
X110399444Y-82544835D01*
X110452127Y-82550500D01*
X112047872Y-82550499D01*
X112107483Y-82544091D01*
X112242331Y-82493796D01*
X112357546Y-82407546D01*
X112443796Y-82292331D01*
X112494091Y-82157483D01*
X112500500Y-82097873D01*
X112500499Y-81102128D01*
X112494091Y-81042517D01*
X112443796Y-80907669D01*
X112443794Y-80907666D01*
X112440696Y-80899360D01*
X112442426Y-80898714D01*
X112429902Y-80841163D01*
X112441691Y-80801011D01*
X112440696Y-80800640D01*
X112443794Y-80792333D01*
X112443796Y-80792331D01*
X112494091Y-80657483D01*
X112500500Y-80597873D01*
X112500499Y-79602128D01*
X112494091Y-79542517D01*
X112443796Y-79407669D01*
X112443794Y-79407666D01*
X112440696Y-79399360D01*
X112442426Y-79398714D01*
X112429902Y-79341163D01*
X112441691Y-79301011D01*
X112440696Y-79300640D01*
X112443794Y-79292333D01*
X112443796Y-79292331D01*
X112494091Y-79157483D01*
X112500500Y-79097873D01*
X112500499Y-78102128D01*
X112494091Y-78042517D01*
X112443796Y-77907669D01*
X112443794Y-77907666D01*
X112440696Y-77899360D01*
X112442426Y-77898714D01*
X112429902Y-77841163D01*
X112441691Y-77801011D01*
X112440696Y-77800640D01*
X112443794Y-77792333D01*
X112443796Y-77792331D01*
X112494091Y-77657483D01*
X112500500Y-77597873D01*
X112500499Y-76602128D01*
X112494091Y-76542517D01*
X112443796Y-76407669D01*
X112443794Y-76407666D01*
X112440696Y-76399360D01*
X112442426Y-76398714D01*
X112429902Y-76341163D01*
X112441691Y-76301011D01*
X112440696Y-76300640D01*
X112443794Y-76292333D01*
X112443796Y-76292331D01*
X112494091Y-76157483D01*
X112500500Y-76097873D01*
X112500499Y-75102128D01*
X112494091Y-75042517D01*
X112443796Y-74907669D01*
X112443794Y-74907666D01*
X112440696Y-74899360D01*
X112442426Y-74898714D01*
X112429902Y-74841163D01*
X112441691Y-74801011D01*
X112440696Y-74800640D01*
X112443794Y-74792333D01*
X112443796Y-74792331D01*
X112494091Y-74657483D01*
X112500500Y-74597873D01*
X112500499Y-73602128D01*
X112494091Y-73542517D01*
X112443796Y-73407669D01*
X112443794Y-73407666D01*
X112440696Y-73399360D01*
X112442426Y-73398714D01*
X112429902Y-73341163D01*
X112441691Y-73301011D01*
X112440696Y-73300640D01*
X112443794Y-73292333D01*
X112443796Y-73292331D01*
X112494091Y-73157483D01*
X112500500Y-73097873D01*
X112500499Y-72102128D01*
X112494091Y-72042517D01*
X112443796Y-71907669D01*
X112443794Y-71907666D01*
X112440696Y-71899360D01*
X112442426Y-71898714D01*
X112429902Y-71841163D01*
X112441691Y-71801011D01*
X112440696Y-71800640D01*
X112443794Y-71792333D01*
X112443796Y-71792331D01*
X112494091Y-71657483D01*
X112500500Y-71597873D01*
X112500499Y-70602128D01*
X112494091Y-70542517D01*
X112443796Y-70407669D01*
X112443792Y-70407664D01*
X112443186Y-70406038D01*
X112442719Y-70405536D01*
X112442455Y-70404076D01*
X112440696Y-70399360D01*
X112441545Y-70399043D01*
X112436884Y-70373248D01*
X112429902Y-70341163D01*
X112430572Y-70338322D01*
X112430294Y-70336780D01*
X112432912Y-70328413D01*
X112439013Y-70302580D01*
X112442585Y-70293947D01*
X112443796Y-70292331D01*
X112448730Y-70279101D01*
X112449567Y-70277080D01*
X112470151Y-70251520D01*
X112489829Y-70225234D01*
X112491963Y-70224437D01*
X112493392Y-70222664D01*
X112524536Y-70212288D01*
X112555293Y-70200816D01*
X112559413Y-70200668D01*
X112559680Y-70200580D01*
X112559952Y-70200649D01*
X112564141Y-70200500D01*
X115819903Y-70200500D01*
X115886942Y-70220185D01*
X115907584Y-70236819D01*
X116713181Y-71042416D01*
X116746666Y-71103739D01*
X116749500Y-71130096D01*
X116749500Y-71249168D01*
X116749501Y-71249192D01*
X116752335Y-71285205D01*
X116797129Y-71439388D01*
X116797131Y-71439393D01*
X116878863Y-71577595D01*
X116878869Y-71577603D01*
X116992396Y-71691130D01*
X116992400Y-71691133D01*
X116992402Y-71691135D01*
X117130607Y-71772869D01*
X117171268Y-71784682D01*
X117284791Y-71817664D01*
X117284794Y-71817664D01*
X117284796Y-71817665D01*
X117285232Y-71817699D01*
X117285976Y-71817758D01*
X117286593Y-71817993D01*
X117291032Y-71818804D01*
X117290881Y-71819627D01*
X117351265Y-71842641D01*
X117392737Y-71898871D01*
X117397224Y-71968597D01*
X117381788Y-72006472D01*
X117305189Y-72130659D01*
X117305186Y-72130666D01*
X117250001Y-72297203D01*
X117250001Y-72297204D01*
X117250000Y-72297204D01*
X117239500Y-72399983D01*
X117239500Y-73600001D01*
X117239501Y-73600018D01*
X117250000Y-73702796D01*
X117250001Y-73702799D01*
X117269056Y-73760302D01*
X117305186Y-73869334D01*
X117397288Y-74018656D01*
X117521344Y-74142712D01*
X117670666Y-74234814D01*
X117837203Y-74289999D01*
X117939991Y-74300500D01*
X119140008Y-74300499D01*
X119242797Y-74289999D01*
X119409334Y-74234814D01*
X119558656Y-74142712D01*
X119682712Y-74018656D01*
X119774814Y-73869334D01*
X119829999Y-73702797D01*
X119840500Y-73600009D01*
X119840499Y-72399992D01*
X119829999Y-72297203D01*
X119774814Y-72130666D01*
X119682712Y-71981344D01*
X119558656Y-71857288D01*
X119450372Y-71790498D01*
X119409336Y-71765187D01*
X119409335Y-71765186D01*
X119409334Y-71765186D01*
X119271812Y-71719615D01*
X119214369Y-71679843D01*
X119187546Y-71615327D01*
X119199861Y-71546551D01*
X119204079Y-71538800D01*
X119262869Y-71439393D01*
X119307665Y-71285204D01*
X119310500Y-71249181D01*
X119310499Y-70750820D01*
X119307665Y-70714796D01*
X119262869Y-70560607D01*
X119181135Y-70422402D01*
X119181133Y-70422400D01*
X119181130Y-70422396D01*
X119067603Y-70308869D01*
X119067595Y-70308863D01*
X118929393Y-70227131D01*
X118929388Y-70227129D01*
X118775208Y-70182335D01*
X118775202Y-70182334D01*
X118739181Y-70179500D01*
X118340830Y-70179500D01*
X118340808Y-70179501D01*
X118304794Y-70182335D01*
X118150611Y-70227129D01*
X118150604Y-70227132D01*
X118093119Y-70261128D01*
X118025395Y-70278309D01*
X117966881Y-70261128D01*
X117909395Y-70227132D01*
X117909388Y-70227129D01*
X117755208Y-70182335D01*
X117755202Y-70182334D01*
X117719188Y-70179500D01*
X117719181Y-70179500D01*
X117600097Y-70179500D01*
X117533058Y-70159815D01*
X117512416Y-70143181D01*
X117080916Y-69711681D01*
X117047431Y-69650358D01*
X117052415Y-69580666D01*
X117094287Y-69524733D01*
X117159751Y-69500316D01*
X117168597Y-69500000D01*
X122771727Y-69500000D01*
X122807722Y-69505339D01*
X123099767Y-69593930D01*
X123099773Y-69593931D01*
X123099776Y-69593932D01*
X123099787Y-69593935D01*
X123424862Y-69658595D01*
X123456369Y-69664862D01*
X123818206Y-69700500D01*
X123818209Y-69700500D01*
X124181791Y-69700500D01*
X124181794Y-69700500D01*
X124543631Y-69664862D01*
X124660342Y-69641647D01*
X124900212Y-69593935D01*
X124900223Y-69593932D01*
X124900223Y-69593931D01*
X124900233Y-69593930D01*
X125192278Y-69505339D01*
X125228273Y-69500000D01*
X127375500Y-69500000D01*
X127442539Y-69519685D01*
X127488294Y-69572489D01*
X127499500Y-69624000D01*
X127499500Y-93201991D01*
X127479815Y-93269030D01*
X127427011Y-93314785D01*
X127357853Y-93324729D01*
X127294297Y-93295704D01*
X127266142Y-93260444D01*
X127177859Y-93095279D01*
X127177858Y-93095277D01*
X127177853Y-93095268D01*
X126975854Y-92792956D01*
X126745197Y-92511899D01*
X126745196Y-92511898D01*
X126745192Y-92511893D01*
X126488106Y-92254807D01*
X126207049Y-92024150D01*
X126207048Y-92024149D01*
X126207044Y-92024146D01*
X125904732Y-91822147D01*
X125904727Y-91822144D01*
X125904720Y-91822140D01*
X125584083Y-91650756D01*
X125584078Y-91650754D01*
X125248165Y-91511614D01*
X124900223Y-91406067D01*
X124900212Y-91406064D01*
X124543630Y-91335137D01*
X124271111Y-91308296D01*
X124181794Y-91299500D01*
X123818206Y-91299500D01*
X123735679Y-91307628D01*
X123456369Y-91335137D01*
X123099787Y-91406064D01*
X123099776Y-91406067D01*
X122751834Y-91511614D01*
X122415921Y-91650754D01*
X122415916Y-91650756D01*
X122095279Y-91822140D01*
X122095261Y-91822151D01*
X121792964Y-92024140D01*
X121792950Y-92024150D01*
X121511893Y-92254807D01*
X121254807Y-92511893D01*
X121024150Y-92792950D01*
X121024140Y-92792964D01*
X120822151Y-93095261D01*
X120822140Y-93095279D01*
X120650756Y-93415916D01*
X120650754Y-93415921D01*
X120511614Y-93751834D01*
X120406067Y-94099776D01*
X120406064Y-94099787D01*
X120335137Y-94456369D01*
X120299500Y-94818209D01*
X120299500Y-95181790D01*
X120335137Y-95543630D01*
X120406064Y-95900212D01*
X120406067Y-95900223D01*
X120511614Y-96248165D01*
X120650754Y-96584078D01*
X120650756Y-96584083D01*
X120822140Y-96904720D01*
X120822151Y-96904738D01*
X121024140Y-97207035D01*
X121024150Y-97207049D01*
X121254807Y-97488106D01*
X121511893Y-97745192D01*
X121511898Y-97745196D01*
X121511899Y-97745197D01*
X121792956Y-97975854D01*
X122095268Y-98177853D01*
X122095277Y-98177858D01*
X122095279Y-98177859D01*
X122260445Y-98266142D01*
X122310289Y-98315104D01*
X122325750Y-98383242D01*
X122301918Y-98448921D01*
X122246361Y-98491290D01*
X122201992Y-98499500D01*
X77798008Y-98499500D01*
X77730969Y-98479815D01*
X77685214Y-98427011D01*
X77675270Y-98357853D01*
X77704295Y-98294297D01*
X77739555Y-98266142D01*
X77785286Y-98241698D01*
X77904732Y-98177853D01*
X78207044Y-97975854D01*
X78488101Y-97745197D01*
X78745197Y-97488101D01*
X78975854Y-97207044D01*
X79177853Y-96904732D01*
X79349247Y-96584076D01*
X79488386Y-96248164D01*
X79593930Y-95900233D01*
X79593932Y-95900223D01*
X79593935Y-95900212D01*
X79664862Y-95543630D01*
X79700500Y-95181790D01*
X79700500Y-94818209D01*
X79664862Y-94456369D01*
X79593935Y-94099787D01*
X79593932Y-94099776D01*
X79593931Y-94099773D01*
X79593930Y-94099767D01*
X79488386Y-93751836D01*
X79349247Y-93415924D01*
X79300502Y-93324729D01*
X79177859Y-93095279D01*
X79177858Y-93095277D01*
X79177853Y-93095268D01*
X78975854Y-92792956D01*
X78745197Y-92511899D01*
X78745196Y-92511898D01*
X78745192Y-92511893D01*
X78488106Y-92254807D01*
X78207049Y-92024150D01*
X78207048Y-92024149D01*
X78207044Y-92024146D01*
X77904732Y-91822147D01*
X77904727Y-91822144D01*
X77904720Y-91822140D01*
X77584083Y-91650756D01*
X77584078Y-91650754D01*
X77248165Y-91511614D01*
X76900223Y-91406067D01*
X76900212Y-91406064D01*
X76543630Y-91335137D01*
X76271111Y-91308296D01*
X76181794Y-91299500D01*
X75818206Y-91299500D01*
X75735679Y-91307628D01*
X75456369Y-91335137D01*
X75099787Y-91406064D01*
X75099776Y-91406067D01*
X74751834Y-91511614D01*
X74415921Y-91650754D01*
X74415916Y-91650756D01*
X74095279Y-91822140D01*
X74095261Y-91822151D01*
X73792964Y-92024140D01*
X73792950Y-92024150D01*
X73511893Y-92254807D01*
X73254807Y-92511893D01*
X73024150Y-92792950D01*
X73024140Y-92792964D01*
X72822151Y-93095261D01*
X72822140Y-93095279D01*
X72733858Y-93260444D01*
X72684896Y-93310289D01*
X72616758Y-93325749D01*
X72551078Y-93301917D01*
X72508710Y-93246360D01*
X72500500Y-93201991D01*
X72500500Y-69624000D01*
X72520185Y-69556961D01*
X72572989Y-69511206D01*
X72624500Y-69500000D01*
X74771727Y-69500000D01*
X74807722Y-69505339D01*
G37*
%TD.AperFunction*%
%TD*%
M02*
