%TF.GenerationSoftware,KiCad,Pcbnew,9.0.7*%
%TF.CreationDate,2026-02-26T00:41:08-05:00*%
%TF.ProjectId,schematic,73636865-6d61-4746-9963-2e6b69636164,rev?*%
%TF.SameCoordinates,Original*%
%TF.FileFunction,Soldermask,Top*%
%TF.FilePolarity,Negative*%
%FSLAX46Y46*%
G04 Gerber Fmt 4.6, Leading zero omitted, Abs format (unit mm)*
G04 Created by KiCad (PCBNEW 9.0.7) date 2026-02-26 00:41:08*
%MOMM*%
%LPD*%
G01*
G04 APERTURE LIST*
G04 Aperture macros list*
%AMRoundRect*
0 Rectangle with rounded corners*
0 $1 Rounding radius*
0 $2 $3 $4 $5 $6 $7 $8 $9 X,Y pos of 4 corners*
0 Add a 4 corners polygon primitive as box body*
4,1,4,$2,$3,$4,$5,$6,$7,$8,$9,$2,$3,0*
0 Add four circle primitives for the rounded corners*
1,1,$1+$1,$2,$3*
1,1,$1+$1,$4,$5*
1,1,$1+$1,$6,$7*
1,1,$1+$1,$8,$9*
0 Add four rect primitives between the rounded corners*
20,1,$1+$1,$2,$3,$4,$5,0*
20,1,$1+$1,$4,$5,$6,$7,0*
20,1,$1+$1,$6,$7,$8,$9,0*
20,1,$1+$1,$8,$9,$2,$3,0*%
G04 Aperture macros list end*
%ADD10RoundRect,0.140000X-0.140000X-0.170000X0.140000X-0.170000X0.140000X0.170000X-0.140000X0.170000X0*%
%ADD11C,6.400000*%
%ADD12C,1.600000*%
%ADD13RoundRect,0.250000X-0.550000X0.550000X-0.550000X-0.550000X0.550000X-0.550000X0.550000X0.550000X0*%
%ADD14RoundRect,0.135000X-0.185000X0.135000X-0.185000X-0.135000X0.185000X-0.135000X0.185000X0.135000X0*%
%ADD15RoundRect,0.375000X-0.625000X-0.375000X0.625000X-0.375000X0.625000X0.375000X-0.625000X0.375000X0*%
%ADD16RoundRect,0.500000X-0.500000X-1.400000X0.500000X-1.400000X0.500000X1.400000X-0.500000X1.400000X0*%
%ADD17RoundRect,0.135000X-0.135000X-0.185000X0.135000X-0.185000X0.135000X0.185000X-0.135000X0.185000X0*%
%ADD18RoundRect,0.102000X-0.825000X-0.825000X0.825000X-0.825000X0.825000X0.825000X-0.825000X0.825000X0*%
%ADD19C,1.854000*%
%ADD20RoundRect,0.250000X-0.650000X0.325000X-0.650000X-0.325000X0.650000X-0.325000X0.650000X0.325000X0*%
%ADD21R,1.500000X0.900000*%
%ADD22C,0.600000*%
%ADD23R,2.900000X2.900000*%
G04 APERTURE END LIST*
D10*
%TO.C,C1*%
X81500000Y-81000000D03*
X82460000Y-81000000D03*
%TD*%
D11*
%TO.C,REF\u002A\u002A*%
X124000000Y-66000000D03*
%TD*%
%TO.C,REF\u002A\u002A*%
X124000000Y-95000000D03*
%TD*%
%TO.C,REF\u002A\u002A*%
X76000000Y-95000000D03*
%TD*%
%TO.C,REF\u002A\u002A*%
X76000000Y-66000000D03*
%TD*%
D12*
%TO.C,U3*%
X118540000Y-80620000D03*
X116000000Y-80620000D03*
X116000000Y-73000000D03*
D13*
X118540000Y-73000000D03*
%TD*%
D14*
%TO.C,R2*%
X91000000Y-71020000D03*
X91000000Y-70000000D03*
%TD*%
D15*
%TO.C,U2*%
X81700000Y-73700000D03*
X81700000Y-76000000D03*
D16*
X88000000Y-76000000D03*
D15*
X81700000Y-78300000D03*
%TD*%
D17*
%TO.C,R1*%
X117520000Y-71000000D03*
X118540000Y-71000000D03*
%TD*%
D18*
%TO.C,J3*%
X112500000Y-89000000D03*
D19*
X116000000Y-89000000D03*
%TD*%
D18*
%TO.C,J2*%
X102500000Y-89000000D03*
D19*
X106000000Y-89000000D03*
%TD*%
D18*
%TO.C,J1*%
X92500000Y-89000000D03*
D19*
X96000000Y-89000000D03*
%TD*%
D20*
%TO.C,D1*%
X91000000Y-76000000D03*
X91000000Y-78950000D03*
%TD*%
D18*
%TO.C,J4*%
X81500000Y-89000000D03*
D19*
X85000000Y-89000000D03*
%TD*%
D21*
%TO.C,U1*%
X93750000Y-69600000D03*
X93750000Y-71100000D03*
X93750000Y-72600000D03*
X93750000Y-74100000D03*
X93750000Y-75600000D03*
X93750000Y-77100000D03*
X93750000Y-78600000D03*
X93750000Y-80100000D03*
X93750000Y-81600000D03*
X111250000Y-81600000D03*
X111250000Y-80100000D03*
X111250000Y-78600000D03*
X111250000Y-77100000D03*
X111250000Y-75600000D03*
X111250000Y-74100000D03*
X111250000Y-72600000D03*
X111250000Y-71100000D03*
X111250000Y-69600000D03*
D22*
X102360000Y-75250000D03*
X102360000Y-76350000D03*
X102910000Y-74700000D03*
X102910000Y-75800000D03*
X102910000Y-76900000D03*
X103460000Y-75250000D03*
D23*
X103460000Y-75800000D03*
D22*
X103460000Y-76350000D03*
X104010000Y-74700000D03*
X104010000Y-75800000D03*
X104010000Y-76900000D03*
X104560000Y-75250000D03*
X104560000Y-76350000D03*
%TD*%
M02*
